<?xml version="1.0" encoding="utf-8" standalone="no"?>
<!DOCTYPE svg PUBLIC "-//W3C//DTD SVG 1.1//EN"
  "http://www.w3.org/Graphics/SVG/1.1/DTD/svg11.dtd">
<svg height="345.6pt" version="1.1" viewBox="0 0 460.8 345.6" width="460.8pt" xmlns="http://www.w3.org/2000/svg" xmlns:xlink="http://www.w3.org/1999/xlink">
 <metadata>
  <rdf:RDF xmlns:cc="http://creativecommons.org/ns#" xmlns:dc="http://purl.org/dc/elements/1.1/" xmlns:rdf="http://www.w3.org/1999/02/22-rdf-syntax-ns#">
   <cc:Work>
    <dc:type rdf:resource="http://purl.org/dc/dcmitype/StillImage"/>
    <dc:date>2021-08-02T20:07:19.772775</dc:date>
    <dc:format>image/svg+xml</dc:format>
    <dc:creator>
     <cc:Agent>
      <dc:title>Matplotlib v3.4.2, https://matplotlib.org/</dc:title>
     </cc:Agent>
    </dc:creator>
   </cc:Work>
  </rdf:RDF>
 </metadata>
 <defs>
  <style type="text/css">*{stroke-linecap:butt;stroke-linejoin:round;}</style>
 </defs>
 <g id="figure_1">
  <g id="patch_1">
   <path d="M 0 345.6 
L 460.8 345.6 
L 460.8 0 
L 0 0 
z
" style="fill:#ffffff;"/>
  </g>
  <g id="axes_1">
   <g id="patch_2">
    <path d="M 57.6 307.584 
L 414.72 307.584 
L 414.72 41.472 
L 57.6 41.472 
z
" style="fill:#ffffff;"/>
   </g>
   <g id="matplotlib.axis_1">
    <g id="xtick_1">
     <g id="line2d_1">
      <defs>
       <path d="M 0 0 
L 0 3.5 
" id="m09629a3eff" style="stroke:#000000;stroke-width:0.8;"/>
      </defs>
      <g>
       <use style="stroke:#000000;stroke-width:0.8;" x="73.832727" xlink:href="#m09629a3eff" y="307.584"/>
      </g>
     </g>
     <g id="text_1">
      <!-- 0 -->
      <g transform="translate(70.651477 322.182437)scale(0.1 -0.1)">
       <defs>
        <path d="M 2034 4250 
Q 1547 4250 1301 3770 
Q 1056 3291 1056 2328 
Q 1056 1369 1301 889 
Q 1547 409 2034 409 
Q 2525 409 2770 889 
Q 3016 1369 3016 2328 
Q 3016 3291 2770 3770 
Q 2525 4250 2034 4250 
z
M 2034 4750 
Q 2819 4750 3233 4129 
Q 3647 3509 3647 2328 
Q 3647 1150 3233 529 
Q 2819 -91 2034 -91 
Q 1250 -91 836 529 
Q 422 1150 422 2328 
Q 422 3509 836 4129 
Q 1250 4750 2034 4750 
z
" id="DejaVuSans-30" transform="scale(0.015625)"/>
       </defs>
       <use xlink:href="#DejaVuSans-30"/>
      </g>
     </g>
    </g>
    <g id="xtick_2">
     <g id="line2d_2">
      <g>
       <use style="stroke:#000000;stroke-width:0.8;" x="138.763636" xlink:href="#m09629a3eff" y="307.584"/>
      </g>
     </g>
     <g id="text_2">
      <!-- 20 -->
      <g transform="translate(132.401136 322.182437)scale(0.1 -0.1)">
       <defs>
        <path d="M 1228 531 
L 3431 531 
L 3431 0 
L 469 0 
L 469 531 
Q 828 903 1448 1529 
Q 2069 2156 2228 2338 
Q 2531 2678 2651 2914 
Q 2772 3150 2772 3378 
Q 2772 3750 2511 3984 
Q 2250 4219 1831 4219 
Q 1534 4219 1204 4116 
Q 875 4013 500 3803 
L 500 4441 
Q 881 4594 1212 4672 
Q 1544 4750 1819 4750 
Q 2544 4750 2975 4387 
Q 3406 4025 3406 3419 
Q 3406 3131 3298 2873 
Q 3191 2616 2906 2266 
Q 2828 2175 2409 1742 
Q 1991 1309 1228 531 
z
" id="DejaVuSans-32" transform="scale(0.015625)"/>
       </defs>
       <use xlink:href="#DejaVuSans-32"/>
       <use x="63.623047" xlink:href="#DejaVuSans-30"/>
      </g>
     </g>
    </g>
    <g id="xtick_3">
     <g id="line2d_3">
      <g>
       <use style="stroke:#000000;stroke-width:0.8;" x="203.694545" xlink:href="#m09629a3eff" y="307.584"/>
      </g>
     </g>
     <g id="text_3">
      <!-- 40 -->
      <g transform="translate(197.332045 322.182437)scale(0.1 -0.1)">
       <defs>
        <path d="M 2419 4116 
L 825 1625 
L 2419 1625 
L 2419 4116 
z
M 2253 4666 
L 3047 4666 
L 3047 1625 
L 3713 1625 
L 3713 1100 
L 3047 1100 
L 3047 0 
L 2419 0 
L 2419 1100 
L 313 1100 
L 313 1709 
L 2253 4666 
z
" id="DejaVuSans-34" transform="scale(0.015625)"/>
       </defs>
       <use xlink:href="#DejaVuSans-34"/>
       <use x="63.623047" xlink:href="#DejaVuSans-30"/>
      </g>
     </g>
    </g>
    <g id="xtick_4">
     <g id="line2d_4">
      <g>
       <use style="stroke:#000000;stroke-width:0.8;" x="268.625455" xlink:href="#m09629a3eff" y="307.584"/>
      </g>
     </g>
     <g id="text_4">
      <!-- 60 -->
      <g transform="translate(262.262955 322.182437)scale(0.1 -0.1)">
       <defs>
        <path d="M 2113 2584 
Q 1688 2584 1439 2293 
Q 1191 2003 1191 1497 
Q 1191 994 1439 701 
Q 1688 409 2113 409 
Q 2538 409 2786 701 
Q 3034 994 3034 1497 
Q 3034 2003 2786 2293 
Q 2538 2584 2113 2584 
z
M 3366 4563 
L 3366 3988 
Q 3128 4100 2886 4159 
Q 2644 4219 2406 4219 
Q 1781 4219 1451 3797 
Q 1122 3375 1075 2522 
Q 1259 2794 1537 2939 
Q 1816 3084 2150 3084 
Q 2853 3084 3261 2657 
Q 3669 2231 3669 1497 
Q 3669 778 3244 343 
Q 2819 -91 2113 -91 
Q 1303 -91 875 529 
Q 447 1150 447 2328 
Q 447 3434 972 4092 
Q 1497 4750 2381 4750 
Q 2619 4750 2861 4703 
Q 3103 4656 3366 4563 
z
" id="DejaVuSans-36" transform="scale(0.015625)"/>
       </defs>
       <use xlink:href="#DejaVuSans-36"/>
       <use x="63.623047" xlink:href="#DejaVuSans-30"/>
      </g>
     </g>
    </g>
    <g id="xtick_5">
     <g id="line2d_5">
      <g>
       <use style="stroke:#000000;stroke-width:0.8;" x="333.556364" xlink:href="#m09629a3eff" y="307.584"/>
      </g>
     </g>
     <g id="text_5">
      <!-- 80 -->
      <g transform="translate(327.193864 322.182437)scale(0.1 -0.1)">
       <defs>
        <path d="M 2034 2216 
Q 1584 2216 1326 1975 
Q 1069 1734 1069 1313 
Q 1069 891 1326 650 
Q 1584 409 2034 409 
Q 2484 409 2743 651 
Q 3003 894 3003 1313 
Q 3003 1734 2745 1975 
Q 2488 2216 2034 2216 
z
M 1403 2484 
Q 997 2584 770 2862 
Q 544 3141 544 3541 
Q 544 4100 942 4425 
Q 1341 4750 2034 4750 
Q 2731 4750 3128 4425 
Q 3525 4100 3525 3541 
Q 3525 3141 3298 2862 
Q 3072 2584 2669 2484 
Q 3125 2378 3379 2068 
Q 3634 1759 3634 1313 
Q 3634 634 3220 271 
Q 2806 -91 2034 -91 
Q 1263 -91 848 271 
Q 434 634 434 1313 
Q 434 1759 690 2068 
Q 947 2378 1403 2484 
z
M 1172 3481 
Q 1172 3119 1398 2916 
Q 1625 2713 2034 2713 
Q 2441 2713 2670 2916 
Q 2900 3119 2900 3481 
Q 2900 3844 2670 4047 
Q 2441 4250 2034 4250 
Q 1625 4250 1398 4047 
Q 1172 3844 1172 3481 
z
" id="DejaVuSans-38" transform="scale(0.015625)"/>
       </defs>
       <use xlink:href="#DejaVuSans-38"/>
       <use x="63.623047" xlink:href="#DejaVuSans-30"/>
      </g>
     </g>
    </g>
    <g id="xtick_6">
     <g id="line2d_6">
      <g>
       <use style="stroke:#000000;stroke-width:0.8;" x="398.487273" xlink:href="#m09629a3eff" y="307.584"/>
      </g>
     </g>
     <g id="text_6">
      <!-- 100 -->
      <g transform="translate(388.943523 322.182437)scale(0.1 -0.1)">
       <defs>
        <path d="M 794 531 
L 1825 531 
L 1825 4091 
L 703 3866 
L 703 4441 
L 1819 4666 
L 2450 4666 
L 2450 531 
L 3481 531 
L 3481 0 
L 794 0 
L 794 531 
z
" id="DejaVuSans-31" transform="scale(0.015625)"/>
       </defs>
       <use xlink:href="#DejaVuSans-31"/>
       <use x="63.623047" xlink:href="#DejaVuSans-30"/>
       <use x="127.246094" xlink:href="#DejaVuSans-30"/>
      </g>
     </g>
    </g>
    <g id="text_7">
     <!-- t -->
     <g transform="translate(234.199844 335.860562)scale(0.1 -0.1)">
      <defs>
       <path d="M 1172 4494 
L 1172 3500 
L 2356 3500 
L 2356 3053 
L 1172 3053 
L 1172 1153 
Q 1172 725 1289 603 
Q 1406 481 1766 481 
L 2356 481 
L 2356 0 
L 1766 0 
Q 1100 0 847 248 
Q 594 497 594 1153 
L 594 3053 
L 172 3053 
L 172 3500 
L 594 3500 
L 594 4494 
L 1172 4494 
z
" id="DejaVuSans-74" transform="scale(0.015625)"/>
      </defs>
      <use xlink:href="#DejaVuSans-74"/>
     </g>
    </g>
   </g>
   <g id="matplotlib.axis_2">
    <g id="ytick_1">
     <g id="line2d_7">
      <defs>
       <path d="M 0 0 
L -3.5 0 
" id="m16e3b7f4d6" style="stroke:#000000;stroke-width:0.8;"/>
      </defs>
      <g>
       <use style="stroke:#000000;stroke-width:0.8;" x="57.6" xlink:href="#m16e3b7f4d6" y="303.249815"/>
      </g>
     </g>
     <g id="text_8">
      <!-- −3 -->
      <g transform="translate(35.857813 307.049034)scale(0.1 -0.1)">
       <defs>
        <path d="M 678 2272 
L 4684 2272 
L 4684 1741 
L 678 1741 
L 678 2272 
z
" id="DejaVuSans-2212" transform="scale(0.015625)"/>
        <path d="M 2597 2516 
Q 3050 2419 3304 2112 
Q 3559 1806 3559 1356 
Q 3559 666 3084 287 
Q 2609 -91 1734 -91 
Q 1441 -91 1130 -33 
Q 819 25 488 141 
L 488 750 
Q 750 597 1062 519 
Q 1375 441 1716 441 
Q 2309 441 2620 675 
Q 2931 909 2931 1356 
Q 2931 1769 2642 2001 
Q 2353 2234 1838 2234 
L 1294 2234 
L 1294 2753 
L 1863 2753 
Q 2328 2753 2575 2939 
Q 2822 3125 2822 3475 
Q 2822 3834 2567 4026 
Q 2313 4219 1838 4219 
Q 1578 4219 1281 4162 
Q 984 4106 628 3988 
L 628 4550 
Q 988 4650 1302 4700 
Q 1616 4750 1894 4750 
Q 2613 4750 3031 4423 
Q 3450 4097 3450 3541 
Q 3450 3153 3228 2886 
Q 3006 2619 2597 2516 
z
" id="DejaVuSans-33" transform="scale(0.015625)"/>
       </defs>
       <use xlink:href="#DejaVuSans-2212"/>
       <use x="83.789062" xlink:href="#DejaVuSans-33"/>
      </g>
     </g>
    </g>
    <g id="ytick_2">
     <g id="line2d_8">
      <g>
       <use style="stroke:#000000;stroke-width:0.8;" x="57.6" xlink:href="#m16e3b7f4d6" y="269.789601"/>
      </g>
     </g>
     <g id="text_9">
      <!-- −2 -->
      <g transform="translate(35.857813 273.58882)scale(0.1 -0.1)">
       <use xlink:href="#DejaVuSans-2212"/>
       <use x="83.789062" xlink:href="#DejaVuSans-32"/>
      </g>
     </g>
    </g>
    <g id="ytick_3">
     <g id="line2d_9">
      <g>
       <use style="stroke:#000000;stroke-width:0.8;" x="57.6" xlink:href="#m16e3b7f4d6" y="236.329386"/>
      </g>
     </g>
     <g id="text_10">
      <!-- −1 -->
      <g transform="translate(35.857813 240.128605)scale(0.1 -0.1)">
       <use xlink:href="#DejaVuSans-2212"/>
       <use x="83.789062" xlink:href="#DejaVuSans-31"/>
      </g>
     </g>
    </g>
    <g id="ytick_4">
     <g id="line2d_10">
      <g>
       <use style="stroke:#000000;stroke-width:0.8;" x="57.6" xlink:href="#m16e3b7f4d6" y="202.869172"/>
      </g>
     </g>
     <g id="text_11">
      <!-- 0 -->
      <g transform="translate(44.2375 206.66839)scale(0.1 -0.1)">
       <use xlink:href="#DejaVuSans-30"/>
      </g>
     </g>
    </g>
    <g id="ytick_5">
     <g id="line2d_11">
      <g>
       <use style="stroke:#000000;stroke-width:0.8;" x="57.6" xlink:href="#m16e3b7f4d6" y="169.408957"/>
      </g>
     </g>
     <g id="text_12">
      <!-- 1 -->
      <g transform="translate(44.2375 173.208176)scale(0.1 -0.1)">
       <use xlink:href="#DejaVuSans-31"/>
      </g>
     </g>
    </g>
    <g id="ytick_6">
     <g id="line2d_12">
      <g>
       <use style="stroke:#000000;stroke-width:0.8;" x="57.6" xlink:href="#m16e3b7f4d6" y="135.948743"/>
      </g>
     </g>
     <g id="text_13">
      <!-- 2 -->
      <g transform="translate(44.2375 139.747961)scale(0.1 -0.1)">
       <use xlink:href="#DejaVuSans-32"/>
      </g>
     </g>
    </g>
    <g id="ytick_7">
     <g id="line2d_13">
      <g>
       <use style="stroke:#000000;stroke-width:0.8;" x="57.6" xlink:href="#m16e3b7f4d6" y="102.488528"/>
      </g>
     </g>
     <g id="text_14">
      <!-- 3 -->
      <g transform="translate(44.2375 106.287747)scale(0.1 -0.1)">
       <use xlink:href="#DejaVuSans-33"/>
      </g>
     </g>
    </g>
    <g id="ytick_8">
     <g id="line2d_14">
      <g>
       <use style="stroke:#000000;stroke-width:0.8;" x="57.6" xlink:href="#m16e3b7f4d6" y="69.028314"/>
      </g>
     </g>
     <g id="text_15">
      <!-- 4 -->
      <g transform="translate(44.2375 72.827532)scale(0.1 -0.1)">
       <use xlink:href="#DejaVuSans-34"/>
      </g>
     </g>
    </g>
    <g id="text_16">
     <!-- $\zeta(\frac{1}{2}+it)$ -->
     <g transform="translate(27.857813 193.528)rotate(-90)scale(0.1 -0.1)">
      <defs>
       <path d="M 1966 397 
Q 2378 394 2578 159 
Q 2794 -88 2722 -463 
Q 2650 -822 2372 -1072 
Q 2069 -1344 1559 -1344 
Q 1606 -1109 1650 -872 
Q 1863 -888 2022 -750 
Q 2144 -641 2166 -525 
Q 2197 -359 2125 -222 
Q 2050 -91 1872 -91 
Q -22 -91 316 1669 
Q 616 3206 2609 4284 
L 947 4284 
L 1059 4863 
L 3778 4863 
L 3666 4284 
Q 1181 3147 894 1669 
Q 647 397 1966 397 
z
" id="DejaVuSans-Oblique-3b6" transform="scale(0.015625)"/>
       <path d="M 1984 4856 
Q 1566 4138 1362 3434 
Q 1159 2731 1159 2009 
Q 1159 1288 1364 580 
Q 1569 -128 1984 -844 
L 1484 -844 
Q 1016 -109 783 600 
Q 550 1309 550 2009 
Q 550 2706 781 3412 
Q 1013 4119 1484 4856 
L 1984 4856 
z
" id="DejaVuSans-28" transform="scale(0.015625)"/>
       <path d="M 2944 4013 
L 2944 2272 
L 4684 2272 
L 4684 1741 
L 2944 1741 
L 2944 0 
L 2419 0 
L 2419 1741 
L 678 1741 
L 678 2272 
L 2419 2272 
L 2419 4013 
L 2944 4013 
z
" id="DejaVuSans-2b" transform="scale(0.015625)"/>
       <path d="M 1172 4863 
L 1747 4863 
L 1606 4134 
L 1031 4134 
L 1172 4863 
z
M 909 3500 
L 1484 3500 
L 800 0 
L 225 0 
L 909 3500 
z
" id="DejaVuSans-Oblique-69" transform="scale(0.015625)"/>
       <path d="M 2706 3500 
L 2619 3053 
L 1472 3053 
L 1100 1153 
Q 1081 1047 1072 975 
Q 1063 903 1063 863 
Q 1063 663 1183 572 
Q 1303 481 1569 481 
L 2150 481 
L 2053 0 
L 1503 0 
Q 991 0 739 200 
Q 488 400 488 806 
Q 488 878 497 964 
Q 506 1050 525 1153 
L 897 3053 
L 409 3053 
L 500 3500 
L 978 3500 
L 1172 4494 
L 1747 4494 
L 1556 3500 
L 2706 3500 
z
" id="DejaVuSans-Oblique-74" transform="scale(0.015625)"/>
       <path d="M 513 4856 
L 1013 4856 
Q 1481 4119 1714 3412 
Q 1947 2706 1947 2009 
Q 1947 1309 1714 600 
Q 1481 -109 1013 -844 
L 513 -844 
Q 928 -128 1133 580 
Q 1338 1288 1338 2009 
Q 1338 2731 1133 3434 
Q 928 4138 513 4856 
z
" id="DejaVuSans-29" transform="scale(0.015625)"/>
      </defs>
      <use transform="translate(0 0.16875)" xlink:href="#DejaVuSans-Oblique-3b6"/>
      <use transform="translate(54.394531 0.16875)" xlink:href="#DejaVuSans-28"/>
      <use transform="translate(93.408203 43.965625)scale(0.7)" xlink:href="#DejaVuSans-31"/>
      <use transform="translate(93.408203 -39.2375)scale(0.7)" xlink:href="#DejaVuSans-32"/>
      <use transform="translate(169.926758 0.16875)" xlink:href="#DejaVuSans-2b"/>
      <use transform="translate(273.198242 0.16875)" xlink:href="#DejaVuSans-Oblique-69"/>
      <use transform="translate(300.981445 0.16875)" xlink:href="#DejaVuSans-Oblique-74"/>
      <use transform="translate(340.19043 0.16875)" xlink:href="#DejaVuSans-29"/>
      <path d="M 93.408203 18.965625 
L 93.408203 25.215625 
L 137.944336 25.215625 
L 137.944336 18.965625 
L 93.408203 18.965625 
z
"/>
     </g>
    </g>
   </g>
   <g id="line2d_15">
    <path clip-path="url(#p11afb07adb)" d="M 73.832727 251.732947 
L 74.157707 249.152726 
L 74.807666 233.980001 
L 75.457625 218.203997 
L 76.107584 207.321275 
L 76.757543 200.455566 
L 77.407502 196.077454 
L 78.057461 193.173668 
L 78.70742 191.158031 
L 79.357379 189.693971 
L 80.332318 188.119644 
L 81.307256 186.976994 
L 82.607174 185.797374 
L 85.53199 183.584262 
L 87.806847 181.708807 
L 89.431744 180.097168 
L 91.056642 178.168182 
L 92.68154 175.861232 
L 94.306437 173.139751 
L 95.931335 170.003828 
L 97.881212 165.774283 
L 102.430925 155.583087 
L 103.730844 153.320231 
L 104.705782 152.072342 
L 105.355741 151.51576 
L 106.0057 151.217821 
L 106.655659 151.210231 
L 107.305618 151.522493 
L 107.955577 152.180731 
L 108.605536 153.206412 
L 109.255495 154.615009 
L 110.230434 157.461249 
L 111.205373 161.174408 
L 112.505291 167.353868 
L 114.130188 176.561784 
L 117.055004 193.661678 
L 118.029943 198.185928 
L 118.679902 200.535184 
L 119.329861 202.218968 
L 119.97982 203.135011 
L 120.304799 203.277131 
L 120.629779 203.196025 
L 120.954758 202.88393 
L 121.279738 202.334629 
L 121.929697 200.508098 
L 122.579656 197.702698 
L 123.229615 193.937344 
L 124.204554 186.618241 
L 125.504472 174.315786 
L 129.404226 134.615054 
L 130.054185 130.11488 
L 130.704144 126.842461 
L 131.354103 124.970305 
L 131.679083 124.599893 
L 132.004062 124.621134 
L 132.329042 125.040039 
L 132.654021 125.85844 
L 133.30398 128.679213 
L 133.953939 133.009466 
L 134.928878 141.996342 
L 136.228796 157.334368 
L 138.503653 185.704562 
L 139.478591 195.142583 
L 140.12855 199.687124 
L 140.778509 202.562503 
L 141.103489 203.328892 
L 141.428468 203.636032 
L 141.753448 203.483469 
L 142.078428 202.877626 
L 142.403407 201.831865 
L 143.053366 198.508301 
L 143.703325 193.753681 
L 144.678264 184.697519 
L 146.95312 162.501316 
L 147.603079 158.028106 
L 148.253038 155.131538 
L 148.578018 154.360072 
L 148.902998 154.069756 
L 149.227977 154.272089 
L 149.552957 154.969241 
L 149.877936 156.153765 
L 150.527895 159.906535 
L 151.177854 165.278501 
L 152.152793 175.475723 
L 154.10267 196.502821 
L 154.752629 201.374363 
L 155.402588 204.211567 
L 155.727568 204.730617 
L 156.052547 204.596746 
L 156.377527 203.784308 
L 156.702506 202.28012 
L 157.352465 197.209565 
L 158.002424 189.546187 
L 158.977363 174.060561 
L 161.902179 121.259476 
L 162.552138 113.574185 
L 163.202097 108.916374 
L 163.527076 107.855499 
L 163.852056 107.68013 
L 164.177035 108.399597 
L 164.502015 110.006012 
L 165.151974 115.762066 
L 165.801933 124.547946 
L 166.776871 141.952224 
L 169.051728 186.379036 
L 169.701687 195.874971 
L 170.351646 202.641143 
L 170.676626 204.885812 
L 171.001605 206.347018 
L 171.326585 207.030281 
L 171.651564 206.960166 
L 171.976544 206.179655 
L 172.301523 204.74904 
L 172.951482 200.255426 
L 173.926421 190.935424 
L 175.226339 178.48189 
L 175.876298 174.197112 
L 176.201278 172.83711 
L 176.526257 172.07056 
L 176.851237 171.927469 
L 177.176216 172.417247 
L 177.501196 173.528125 
L 178.151155 177.460788 
L 178.801114 183.222724 
L 180.750991 202.815598 
L 181.40095 206.694329 
L 181.72593 207.596632 
L 182.050909 207.688358 
L 182.375889 206.904762 
L 182.700868 205.20394 
L 183.025848 202.568745 
L 183.675807 194.557261 
L 184.325766 183.257779 
L 185.300704 161.959255 
L 186.925602 125.241109 
L 187.575561 114.177903 
L 188.22552 107.006289 
L 188.5505 105.138807 
L 188.875479 104.500137 
L 189.200459 105.114202 
L 189.525438 106.972529 
L 189.850418 110.034004 
L 190.500377 119.443767 
L 191.475315 139.828581 
L 193.425192 185.077921 
L 194.075152 195.841712 
L 194.725111 202.468903 
L 195.05009 204.045457 
L 195.37507 204.433278 
L 195.700049 203.653788 
L 196.025029 201.763413 
L 196.674988 195.039144 
L 197.324947 185.319787 
L 199.274824 152.901185 
L 199.924783 145.958729 
L 200.249762 143.86073 
L 200.574742 142.779626 
L 200.899722 142.748238 
L 201.224701 143.763357 
L 201.549681 145.785973 
L 202.19964 152.528522 
L 203.174578 167.418843 
L 204.474496 188.881934 
L 205.124455 197.072427 
L 205.774414 202.0869 
L 206.099394 203.21197 
L 206.424373 203.383206 
L 206.749353 202.622082 
L 207.074333 200.986098 
L 207.724292 195.485896 
L 208.69923 183.850422 
L 209.674169 172.447331 
L 210.324128 167.335151 
L 210.649107 165.944797 
L 210.974087 165.449097 
L 211.299066 165.889967 
L 211.624046 167.268988 
L 211.949025 169.546323 
L 212.598984 176.434109 
L 214.873841 206.618525 
L 215.198821 208.81021 
L 215.5238 209.858335 
L 215.84878 209.620448 
L 216.173759 207.995103 
L 216.498739 204.926985 
L 217.148698 194.491303 
L 217.798657 178.883347 
L 218.773595 148.895163 
L 220.073514 107.935773 
L 220.723473 92.380643 
L 221.373432 82.80017 
L 221.698411 80.664065 
L 222.023391 80.41285 
L 222.34837 82.060656 
L 222.67335 85.562267 
L 223.323309 97.659517 
L 223.973268 115.259232 
L 226.573104 195.36786 
L 227.223063 206.96234 
L 227.548043 210.580867 
L 227.873022 212.728757 
L 228.198002 213.46213 
L 228.522981 212.889063 
L 228.847961 211.163963 
L 229.49792 205.060604 
L 231.447797 182.697766 
L 231.772776 180.666375 
L 232.097756 179.503973 
L 232.422735 179.253588 
L 232.747715 179.906757 
L 233.072695 181.40438 
L 233.722654 186.464688 
L 235.347551 202.323983 
L 235.672531 204.299953 
L 235.99751 205.414316 
L 236.32249 205.528087 
L 236.647469 204.547399 
L 236.972449 202.429108 
L 237.622408 194.878233 
L 238.272367 183.608814 
L 240.222244 144.758828 
L 240.872203 137.079587 
L 241.197183 135.207069 
L 241.522162 134.794201 
L 241.847142 135.876549 
L 242.172121 138.424872 
L 242.82208 147.479506 
L 243.797019 167.799067 
L 244.771957 189.03324 
L 245.421916 199.33486 
L 245.746896 202.482042 
L 246.071876 204.026065 
L 246.396855 203.846092 
L 246.721835 201.893371 
L 247.046814 198.19464 
L 247.696773 186.041037 
L 248.671712 159.473482 
L 249.97163 122.924375 
L 250.621589 110.729994 
L 250.946568 107.165447 
L 251.271548 105.514253 
L 251.596527 105.848795 
L 251.921507 108.159527 
L 252.246486 112.355085 
L 252.896446 125.651976 
L 253.871384 153.430256 
L 254.846323 181.670854 
L 255.496282 195.854745 
L 255.821261 200.705772 
L 256.146241 203.835968 
L 256.47122 205.172244 
L 256.7962 204.722969 
L 257.121179 202.576766 
L 257.446159 198.897583 
L 258.096118 187.919215 
L 260.045995 149.797595 
L 260.370975 146.118711 
L 260.695954 143.838117 
L 261.020934 143.053399 
L 261.345913 143.786999 
L 261.670893 145.986371 
L 262.320852 154.224329 
L 263.29579 172.656676 
L 264.270729 191.289405 
L 264.920688 200.140386 
L 265.245667 202.935965 
L 265.570647 204.53991 
L 265.895627 204.960179 
L 266.220606 204.273374 
L 266.545586 202.619681 
L 267.195545 197.235458 
L 268.170483 187.880293 
L 268.820442 183.89744 
L 269.145422 183.220492 
L 269.470401 183.58053 
L 269.795381 185.011483 
L 270.12036 187.471917 
L 270.770319 194.94104 
L 272.070238 212.825695 
L 272.395217 215.954785 
L 272.720197 217.848354 
L 273.045176 218.205555 
L 273.370156 216.783097 
L 273.695135 213.410932 
L 274.020115 208.004665 
L 274.670074 191.226312 
L 275.320033 167.689035 
L 277.26991 87.57562 
L 277.919869 70.539348 
L 278.244848 65.688529 
L 278.569828 63.582528 
L 278.894808 64.31181 
L 279.219787 67.85205 
L 279.544767 74.064436 
L 280.194726 93.417847 
L 281.169664 133.482809 
L 282.469582 185.896328 
L 283.119541 203.339757 
L 283.444521 208.862171 
L 283.7695 212.137497 
L 284.09448 213.216798 
L 284.419459 212.254934 
L 284.744439 209.499739 
L 285.394398 199.969053 
L 287.019296 171.819365 
L 287.344275 168.468224 
L 287.669255 166.468058 
L 287.994234 165.904058 
L 288.319214 166.766399 
L 288.644193 168.953072 
L 289.294152 176.483828 
L 290.91905 199.071368 
L 291.244029 201.575626 
L 291.569009 202.810159 
L 291.893989 202.655325 
L 292.218968 201.079105 
L 292.543948 198.139469 
L 293.193907 188.828104 
L 295.143784 155.392073 
L 295.468763 152.578689 
L 295.793743 151.241027 
L 296.118722 151.473946 
L 296.443702 153.278106 
L 296.768681 156.558491 
L 297.41864 166.720611 
L 299.043538 197.102295 
L 299.368518 200.93601 
L 299.693497 203.262288 
L 300.018477 203.895915 
L 300.343456 202.749852 
L 300.668436 199.842248 
L 301.318395 189.339826 
L 302.293333 166.469555 
L 303.268272 145.255816 
L 303.593251 140.568411 
L 303.918231 137.628874 
L 304.24321 136.635332 
L 304.56819 137.673623 
L 304.89317 140.709618 
L 305.543129 152.040509 
L 307.817985 203.033892 
L 308.142965 205.202228 
L 308.467944 204.956191 
L 308.792924 202.172134 
L 309.117903 196.862631 
L 309.767862 179.403301 
L 310.742801 142.03239 
L 311.71774 104.825785 
L 312.367699 88.004516 
L 312.692678 83.367372 
L 313.017658 81.598046 
L 313.342637 82.788224 
L 313.667617 86.885103 
L 313.992596 93.69521 
L 314.642555 114.054345 
L 316.917412 200.268224 
L 317.567371 212.786511 
L 317.892351 215.73725 
L 318.21733 216.572336 
L 318.54231 215.504055 
L 318.867289 212.84089 
L 319.517248 204.303382 
L 320.492187 189.977434 
L 321.142146 183.83456 
L 321.467125 182.501792 
L 321.792105 182.418618 
L 322.117084 183.522046 
L 322.442064 185.652001 
L 323.092023 191.956172 
L 324.066962 201.501862 
L 324.391941 203.357185 
L 324.716921 204.1035 
L 325.0419 203.586848 
L 325.36688 201.749867 
L 325.691859 198.638043 
L 326.341818 189.272375 
L 327.641736 166.970632 
L 328.291695 160.218539 
L 328.616675 159.086076 
L 328.941654 159.673459 
L 329.266634 162.006226 
L 329.591613 165.985841 
L 330.241572 177.885474 
L 331.541491 205.220973 
L 331.86647 209.705155 
L 332.19145 212.241264 
L 332.516429 212.453731 
L 332.841409 210.087488 
L 333.166388 205.02858 
L 333.816347 187.148368 
L 334.466306 160.967959 
L 336.091204 89.86462 
L 336.741163 73.286231 
L 337.066143 69.642812 
L 337.391122 69.403356 
L 337.716102 72.583145 
L 338.041081 79.021822 
L 338.69104 100.219238 
L 340.965897 195.988828 
L 341.615856 209.057344 
L 341.940835 211.51368 
L 342.265815 211.351776 
L 342.590794 208.839179 
L 343.240753 198.453505 
L 344.540672 171.69166 
L 345.190631 163.751549 
L 345.51561 162.359207 
L 345.84059 162.808107 
L 346.165569 165.01102 
L 346.815528 173.676121 
L 348.115446 196.131109 
L 348.440426 199.999269 
L 348.765405 202.345566 
L 349.090385 202.919227 
L 349.415364 201.596571 
L 349.740344 198.390316 
L 350.390303 187.048451 
L 352.34018 143.209078 
L 352.66516 139.472019 
L 352.990139 137.708296 
L 353.315119 138.03125 
L 353.640098 140.416711 
L 353.965078 144.70517 
L 354.615037 157.755463 
L 356.239934 195.090689 
L 356.564914 199.713317 
L 356.889894 202.672895 
L 357.214873 203.895504 
L 357.539853 203.442324 
L 357.864832 201.503969 
L 358.514791 194.480185 
L 359.48973 182.657742 
L 359.814709 180.178234 
L 360.139689 179.029275 
L 360.464668 179.414187 
L 360.789648 181.399678 
L 361.114627 184.905231 
L 361.764586 195.430362 
L 362.739525 213.031408 
L 363.064505 217.060614 
L 363.389484 219.199003 
L 363.714464 218.965231 
L 364.039443 216.001972 
L 364.364423 210.107488 
L 365.014382 189.61626 
L 365.664341 159.532816 
L 367.289238 76.998042 
L 367.939197 57.775757 
L 368.264177 53.657006 
L 368.589156 53.568 
L 368.914136 57.519443 
L 369.239115 65.304535 
L 369.889075 90.543392 
L 372.163931 199.702691 
L 372.488911 207.793304 
L 372.81389 212.652956 
L 373.13887 214.292708 
L 373.463849 212.920807 
L 373.788829 208.922414 
L 374.438788 195.273389 
L 375.738706 164.192491 
L 376.063686 159.243596 
L 376.388665 156.256819 
L 376.713645 155.383962 
L 377.038624 156.609855 
L 377.363604 159.760929 
L 378.013563 170.481894 
L 379.313481 196.177438 
L 379.96344 203.841742 
L 380.288419 205.419838 
L 380.613399 205.469201 
L 380.938378 204.138893 
L 381.588337 198.498834 
L 382.563276 188.627855 
L 382.888256 186.604718 
L 383.213235 185.737497 
L 383.538215 186.17992 
L 383.863194 187.951453 
L 384.513153 194.865924 
L 385.813071 211.61295 
L 386.138051 213.543399 
L 386.46303 213.648963 
L 386.78801 211.624201 
L 387.112989 207.30687 
L 387.762948 191.971811 
L 388.737887 157.210309 
L 389.712826 122.782297 
L 390.362785 109.040657 
L 390.687764 106.454302 
L 391.012744 107.02768 
L 391.337723 110.737756 
L 391.662703 117.354326 
L 392.312662 137.433944 
L 393.61258 184.759256 
L 394.262539 199.507273 
L 394.587518 202.564358 
L 394.912498 202.409563 
L 395.237477 199.067636 
L 395.562457 192.785614 
L 396.212416 173.386136 
L 397.512334 128.201809 
L 398.162293 115.009264 
L 398.487273 112.773533 
L 398.487273 112.773533 
" style="fill:none;stroke:#1f77b4;stroke-linecap:square;stroke-width:1.5;"/>
   </g>
   <g id="line2d_16">
    <path clip-path="url(#p11afb07adb)" d="M 73.832727 202.869172 
L 74.482686 225.443579 
L 74.807666 231.629023 
L 75.132645 234.482908 
L 75.457625 235.031627 
L 75.782604 234.216399 
L 76.432563 230.850458 
L 77.732482 223.470575 
L 78.70742 218.98182 
L 79.682359 215.343758 
L 80.982277 211.431155 
L 82.282195 208.23022 
L 83.907093 204.857302 
L 85.85697 201.379974 
L 88.131826 197.82288 
L 90.406683 194.698738 
L 92.35656 192.42191 
L 93.656478 191.18312 
L 94.956396 190.242094 
L 95.931335 189.779808 
L 96.906274 189.568576 
L 97.881212 189.649084 
L 98.531171 189.885199 
L 99.50611 190.542544 
L 100.481048 191.595674 
L 101.455987 193.073802 
L 102.430925 194.995132 
L 103.405864 197.362596 
L 104.705782 201.180766 
L 106.33068 206.849361 
L 110.880393 223.643501 
L 111.855332 226.177462 
L 112.505291 227.401058 
L 113.15525 228.175196 
L 113.480229 228.374397 
L 113.805209 228.438842 
L 114.130188 228.362037 
L 114.455168 228.138106 
L 115.105127 227.228954 
L 115.755086 225.679972 
L 116.405045 223.475066 
L 117.055004 220.615989 
L 118.029943 215.154456 
L 119.004881 208.442131 
L 120.629779 195.298701 
L 122.904636 176.394958 
L 123.879574 169.714361 
L 124.529533 166.186737 
L 125.179492 163.595041 
L 125.829451 162.083658 
L 126.154431 161.770487 
L 126.47941 161.767982 
L 126.80439 162.084802 
L 127.129369 162.7269 
L 127.779328 164.996134 
L 128.429287 168.562849 
L 129.079247 173.361986 
L 130.054185 182.596917 
L 131.354103 197.680578 
L 133.953939 228.961072 
L 134.928878 237.798289 
L 135.578837 242.023111 
L 136.228796 244.667743 
L 136.553776 245.352266 
L 136.878755 245.597212 
L 137.203735 245.398401 
L 137.528714 244.757197 
L 137.853694 243.680634 
L 138.503653 240.278198 
L 139.153612 235.360916 
L 140.12855 225.724583 
L 143.378346 189.711276 
L 144.028305 184.932756 
L 144.678264 181.770349 
L 145.003243 180.856055 
L 145.328223 180.404452 
L 145.653202 180.419367 
L 145.978182 180.896523 
L 146.303161 181.823417 
L 146.95312 184.935582 
L 147.603079 189.495917 
L 148.578018 198.205468 
L 150.202916 213.506116 
L 150.852875 218.299977 
L 151.502834 221.571622 
L 151.827813 222.508773 
L 152.152793 222.927329 
L 152.477772 222.799077 
L 152.802752 222.105933 
L 153.127731 220.840585 
L 153.77769 216.620444 
L 154.427649 210.307872 
L 155.402588 197.724099 
L 158.002424 160.700563 
L 158.652383 154.617872 
L 159.302342 151.129997 
L 159.627322 150.500604 
L 159.952301 150.664716 
L 160.277281 151.6426 
L 160.60226 153.439513 
L 161.252219 159.434012 
L 161.902179 168.380871 
L 162.877117 186.179222 
L 165.801933 244.816881 
L 166.451892 253.156012 
L 167.101851 258.293722 
L 167.42683 259.565245 
L 167.75181 259.955801 
L 168.07679 259.476347 
L 168.401769 258.156137 
L 169.051728 253.197898 
L 169.701687 245.647641 
L 170.676626 231.205187 
L 172.301523 206.63573 
L 172.951482 199.214438 
L 173.601441 194.134034 
L 173.926421 192.572924 
L 174.2514 191.680195 
L 174.57638 191.442729 
L 174.90136 191.827755 
L 175.226339 192.783673 
L 175.876298 196.116263 
L 176.851237 203.21367 
L 177.826175 210.07459 
L 178.476134 212.967316 
L 178.801114 213.608802 
L 179.126093 213.612271 
L 179.451073 212.924459 
L 179.776052 211.512933 
L 180.426011 206.501632 
L 181.075971 198.77755 
L 182.050909 183.426351 
L 183.675807 156.260875 
L 184.325766 148.349199 
L 184.650745 145.594993 
L 184.975725 143.791332 
L 185.300704 143.023867 
L 185.625684 143.353376 
L 185.950663 144.813402 
L 186.275643 147.408609 
L 186.925602 155.874565 
L 187.575561 168.199652 
L 188.5505 191.682102 
L 190.175397 232.241472 
L 190.825356 244.556698 
L 191.475315 252.776168 
L 191.800295 255.109378 
L 192.125274 256.192466 
L 192.450254 256.018495 
L 192.775233 254.615146 
L 193.100213 252.044118 
L 193.750172 243.805171 
L 194.725111 225.929485 
L 196.350008 194.100627 
L 196.999967 185.106623 
L 197.649926 179.960042 
L 197.974906 179.008711 
L 198.299885 179.164667 
L 198.624865 180.402483 
L 198.949844 182.661668 
L 199.599803 189.840398 
L 200.574742 205.055405 
L 201.87466 225.950704 
L 202.524619 233.389351 
L 202.849599 235.856549 
L 203.174578 237.371052 
L 203.499558 237.886543 
L 203.824537 237.392543 
L 204.149517 235.914712 
L 204.474496 233.513854 
L 205.124455 226.34721 
L 206.099394 211.870348 
L 207.399312 193.058333 
L 208.049271 186.879332 
L 208.374251 185.01424 
L 208.69923 184.041773 
L 209.02421 183.972968 
L 209.349189 184.78055 
L 209.674169 186.399507 
L 210.324128 191.636534 
L 212.274005 211.129879 
L 212.598984 212.900041 
L 212.923964 213.781997 
L 213.248943 213.655823 
L 213.573923 212.438865 
L 213.898903 210.090197 
L 214.548862 202.058931 
L 215.198821 190.141191 
L 217.798657 135.505582 
L 218.123636 132.045932 
L 218.448616 130.086684 
L 218.773595 129.764994 
L 219.098575 131.168472 
L 219.423554 134.330976 
L 220.073514 145.787658 
L 220.723473 163.29183 
L 221.698411 197.116358 
L 223.323309 253.695034 
L 223.973268 269.418189 
L 224.623227 278.638075 
L 224.948206 280.585648 
L 225.273186 280.755974 
L 225.598165 279.220284 
L 225.923145 276.104599 
L 226.573104 265.876888 
L 227.548043 244.243885 
L 228.847961 215.272593 
L 229.49792 205.029005 
L 230.147879 199.066556 
L 230.472858 197.747766 
L 230.797838 197.462827 
L 231.122817 198.095829 
L 231.447797 199.489893 
L 232.097756 203.778325 
L 233.072695 210.631 
L 233.397674 212.155075 
L 233.722654 212.991971 
L 234.047633 213.008963 
L 234.372613 212.117851 
L 234.697592 210.279629 
L 235.347551 203.863859 
L 235.99751 194.465033 
L 237.622408 168.112894 
L 238.272367 161.388882 
L 238.597346 159.67508 
L 238.922326 159.23138 
L 239.247305 160.121174 
L 239.572285 162.350016 
L 240.222244 170.549366 
L 240.872203 182.713585 
L 242.497101 217.049522 
L 243.14706 226.164686 
L 243.472039 228.722158 
L 243.797019 229.741533 
L 244.121998 229.148018 
L 244.446978 226.936004 
L 244.771957 223.170802 
L 245.421916 211.585356 
L 246.396855 187.870134 
L 247.371794 164.598603 
L 248.021753 153.973691 
L 248.346732 150.982572 
L 248.671712 149.789664 
L 248.996691 150.493828 
L 249.321671 153.115779 
L 249.64665 157.596281 
L 250.296609 171.509775 
L 251.271548 200.701333 
L 252.571466 239.794302 
L 253.221425 252.820094 
L 253.546405 256.753431 
L 253.871384 258.782847 
L 254.196364 258.870693 
L 254.521343 257.0621 
L 254.846323 253.482617 
L 255.496282 241.875982 
L 257.771138 189.508282 
L 258.096118 185.136982 
L 258.421097 182.300938 
L 258.746077 181.092887 
L 259.071057 181.52694 
L 259.396036 183.539016 
L 259.721016 186.991029 
L 260.370975 197.341957 
L 262.320852 233.986323 
L 262.645831 237.698708 
L 262.970811 240.134052 
L 263.29579 241.204039 
L 263.62077 240.892222 
L 263.945749 239.253592 
L 264.270729 236.410383 
L 264.920688 227.885844 
L 266.545586 202.355686 
L 267.195545 195.863146 
L 267.520524 194.089347 
L 267.845504 193.341891 
L 268.170483 193.566286 
L 268.495463 194.639828 
L 269.145422 198.54472 
L 270.12036 204.77181 
L 270.44534 205.764726 
L 270.770319 205.760911 
L 271.095299 204.548029 
L 271.420278 201.975739 
L 271.745258 197.967388 
L 272.395217 185.748415 
L 273.370156 159.513987 
L 274.670074 124.055987 
L 275.320033 113.693393 
L 275.645012 111.662224 
L 275.969992 112.061065 
L 276.294971 115.021862 
L 276.619951 120.572189 
L 277.26991 139.008879 
L 277.919869 165.468283 
L 280.194726 267.496009 
L 280.844685 283.108725 
L 281.169664 287.008978 
L 281.494644 288.223991 
L 281.819623 286.836292 
L 282.144603 283.037685 
L 282.794562 269.451991 
L 284.09448 230.51909 
L 284.744439 212.734139 
L 285.394398 200.194203 
L 285.719378 196.428546 
L 286.044357 194.421724 
L 286.369337 194.114287 
L 286.694316 195.35229 
L 287.019296 197.898773 
L 287.669255 205.652885 
L 288.644193 218.402441 
L 289.294152 223.571739 
L 289.619132 224.389594 
L 289.944111 223.86378 
L 290.269091 221.981198 
L 290.59407 218.818823 
L 291.244029 209.37572 
L 292.868927 181.66172 
L 293.193907 178.099495 
L 293.518886 175.838296 
L 293.843866 175.024061 
L 294.168845 175.715658 
L 294.493825 177.880243 
L 295.143784 186.049103 
L 297.093661 219.385314 
L 297.41864 222.457062 
L 297.74362 224.033834 
L 298.0686 223.978102 
L 298.393579 222.248853 
L 298.718559 218.905679 
L 299.368518 208.101734 
L 301.318395 167.885968 
L 301.643374 164.252951 
L 301.968354 162.349287 
L 302.293333 162.31369 
L 302.618313 164.175653 
L 302.943292 167.851431 
L 303.593251 179.765456 
L 305.543129 222.779656 
L 305.868108 226.176046 
L 306.193088 227.521361 
L 306.518067 226.65836 
L 306.843047 223.55495 
L 307.168026 218.309084 
L 307.817985 202.409923 
L 309.767862 145.706543 
L 310.092842 140.729912 
L 310.417821 138.257738 
L 310.742801 138.529753 
L 311.067781 141.64931 
L 311.39276 147.576345 
L 312.042719 166.9883 
L 313.017658 208.625965 
L 313.992596 251.279827 
L 314.642555 272.418405 
L 314.967535 279.472786 
L 315.292514 283.861529 
L 315.617494 285.51247 
L 315.942473 284.491556 
L 316.267453 280.99572 
L 316.917412 267.928833 
L 319.192269 208.44574 
L 319.517248 203.885408 
L 319.842228 200.958331 
L 320.167207 199.609961 
L 320.492187 199.680215 
L 320.817166 200.918625 
L 321.467125 205.574509 
L 322.117084 210.643426 
L 322.442064 212.436457 
L 322.767043 213.350319 
L 323.092023 213.192071 
L 323.417002 211.862616 
L 323.741982 209.363385 
L 324.391941 201.353794 
L 326.016839 177.04411 
L 326.341818 174.198723 
L 326.666798 172.691833 
L 326.991777 172.660022 
L 327.316757 174.134921 
L 327.641736 177.036981 
L 328.291695 186.264651 
L 329.591613 207.85964 
L 329.916593 211.279661 
L 330.241572 213.073007 
L 330.566552 212.947916 
L 330.891532 210.725753 
L 331.216511 206.358044 
L 331.86647 191.689401 
L 332.841409 160.17771 
L 333.816347 130.662795 
L 334.141327 124.168538 
L 334.466306 120.231399 
L 334.791286 119.220372 
L 335.116265 121.358639 
L 335.441245 126.706897 
L 336.091204 146.429956 
L 336.741163 175.59671 
L 338.366061 255.795027 
L 339.01602 276.246094 
L 339.340999 281.975672 
L 339.665979 284.47022 
L 339.990958 283.768079 
L 340.315938 280.076987 
L 340.965897 265.306093 
L 343.240753 198.519528 
L 343.565733 194.358963 
L 343.890713 192.386313 
L 344.215692 192.524017 
L 344.540672 194.551352 
L 345.190631 202.799496 
L 346.490549 222.26229 
L 346.815528 224.905883 
L 347.140508 225.949416 
L 347.465487 225.237382 
L 347.790467 222.751739 
L 348.440426 213.067496 
L 350.390303 174.418123 
L 350.715283 171.44513 
L 351.040262 170.403123 
L 351.365242 171.404653 
L 351.690221 174.425 
L 352.34018 185.753451 
L 354.290057 231.86883 
L 354.615037 236.307693 
L 354.940016 238.876725 
L 355.264996 239.468986 
L 355.589975 238.113787 
L 355.914955 234.973102 
L 356.564914 224.55857 
L 357.864832 199.473866 
L 358.514791 191.742872 
L 358.839771 190.054293 
L 359.16475 189.870918 
L 359.48973 191.061769 
L 360.139689 196.414619 
L 360.789648 202.871966 
L 361.114627 205.263124 
L 361.439607 206.440668 
L 361.764586 205.991133 
L 362.089566 203.607391 
L 362.414545 199.118027 
L 363.064505 183.927656 
L 364.039443 150.251135 
L 365.014382 117.677192 
L 365.339361 110.394356 
L 365.664341 105.971078 
L 365.98932 104.874686 
L 366.3143 107.403187 
L 366.639279 113.660604 
L 367.289238 136.74525 
L 367.939197 170.925442 
L 369.564095 264.183766 
L 370.214054 287.171084 
L 370.539034 293.252496 
L 370.864013 295.488 
L 371.188993 293.968803 
L 371.513972 288.99341 
L 372.163931 270.759393 
L 374.113808 202.825945 
L 374.438788 196.774652 
L 374.763767 193.295817 
L 375.088747 192.400951 
L 375.413726 193.922169 
L 375.738706 197.531572 
L 376.388665 209.091302 
L 377.363604 228.584744 
L 378.013563 236.771291 
L 378.338542 238.361826 
L 378.663522 238.131453 
L 378.988501 236.152034 
L 379.313481 232.632751 
L 379.96344 222.3565 
L 380.938378 205.452739 
L 381.588337 197.969338 
L 381.913317 196.122675 
L 382.238296 195.593671 
L 382.563276 196.256021 
L 382.888256 197.860748 
L 383.863194 204.511179 
L 384.188174 205.864642 
L 384.513153 206.085522 
L 384.838133 204.857808 
L 385.163112 201.982155 
L 385.488092 197.398815 
L 386.138051 183.628991 
L 387.762948 141.928084 
L 388.087928 136.921502 
L 388.412907 134.278466 
L 388.737887 134.3279 
L 389.062867 137.23137 
L 389.387846 142.964424 
L 390.037805 161.872576 
L 391.987682 234.20886 
L 392.312662 240.920026 
L 392.637641 244.597939 
L 392.962621 245.044812 
L 393.2876 242.27905 
L 393.61258 236.536473 
L 394.262539 218.051468 
L 395.562457 173.798307 
L 396.212416 160.692309 
L 396.537396 158.471118 
L 396.862375 159.451608 
L 397.187355 163.589874 
L 397.512334 170.619294 
L 398.162293 191.301546 
L 398.487273 203.551293 
L 398.487273 203.551293 
" style="fill:none;stroke:#ff7f0e;stroke-linecap:square;stroke-width:1.5;"/>
   </g>
   <g id="line2d_17">
    <path clip-path="url(#p11afb07adb)" d="M 73.832727 202.869172 
L 398.487273 202.869172 
L 398.487273 202.869172 
" style="fill:none;stroke:#2f4f4f;stroke-dasharray:1.5,2.475;stroke-dashoffset:0;stroke-width:1.5;"/>
   </g>
   <g id="patch_3">
    <path d="M 57.6 307.584 
L 57.6 41.472 
" style="fill:none;stroke:#000000;stroke-linecap:square;stroke-linejoin:miter;stroke-width:0.8;"/>
   </g>
   <g id="patch_4">
    <path d="M 414.72 307.584 
L 414.72 41.472 
" style="fill:none;stroke:#000000;stroke-linecap:square;stroke-linejoin:miter;stroke-width:0.8;"/>
   </g>
   <g id="patch_5">
    <path d="M 57.6 307.584 
L 414.72 307.584 
" style="fill:none;stroke:#000000;stroke-linecap:square;stroke-linejoin:miter;stroke-width:0.8;"/>
   </g>
   <g id="patch_6">
    <path d="M 57.6 41.472 
L 414.72 41.472 
" style="fill:none;stroke:#000000;stroke-linecap:square;stroke-linejoin:miter;stroke-width:0.8;"/>
   </g>
  </g>
 </g>
 <defs>
  <clipPath id="p11afb07adb">
   <rect height="266.112" width="357.12" x="57.6" y="41.472"/>
  </clipPath>
 </defs>
</svg>
